<?xml version="1.0" encoding="UTF-8"?>
<mxfile host="app.diagrams.net" modified="2024-08-10T06:00:00.000Z" agent="5.0" etag="abc123" version="22.1.16" type="device">
  <diagram name="Architecture Diagram" id="architecture-diagram">
    <mxGraphModel dx="1422" dy="794" grid="1" gridSize="10" guides="1" tooltips="1" connect="1" arrows="1" fold="1" page="1" pageScale="1" pageWidth="1400" pageHeight="1000" math="0" shadow="0">
      <root>
        <mxCell id="0" />
        <mxCell id="1" parent="0" />
        
        <!-- Title -->
        <mxCell id="title" value="ARSITEKTUR SISTEM FASHION PARK" style="text;html=1;strokeColor=none;fillColor=none;align=center;verticalAlign=middle;whiteSpace=wrap;rounded=0;fontSize=24;fontStyle=1;" vertex="1" parent="1">
          <mxGeometry x="400" y="20" width="600" height="40" as="geometry" />
        </mxCell>
        
        <!-- User Layer -->
        <mxCell id="user_layer" value="USER LAYER" style="rounded=1;whiteSpace=wrap;html=1;fillColor=#e1d5e7;strokeColor=#9673a6;fontSize=16;fontStyle=1;" vertex="1" parent="1">
          <mxGeometry x="50" y="100" width="1300" height="100" as="geometry" />
        </mxCell>
        
        <!-- Users -->
        <mxCell id="pemilik" value="Pemilik" style="rounded=1;whiteSpace=wrap;html=1;fillColor=#d5e8d4;strokeColor=#82b366;fontSize=14;fontStyle=1;" vertex="1" parent="1">
          <mxGeometry x="100" y="120" width="120" height="60" as="geometry" />
        </mxCell>
        
        <mxCell id="admin" value="Admin" style="rounded=1;whiteSpace=wrap;html=1;fillColor=#dae8fc;strokeColor=#6c8ebf;fontSize=14;fontStyle=1;" vertex="1" parent="1">
          <mxGeometry x="250" y="120" width="120" height="60" as="geometry" />
        </mxCell>
        
        <mxCell id="kasir" value="Kasir" style="rounded=1;whiteSpace=wrap;html=1;fillColor=#fff2cc;strokeColor=#d6b656;fontSize=14;fontStyle=1;" vertex="1" parent="1">
          <mxGeometry x="400" y="120" width="120" height="60" as="geometry" />
        </mxCell>
        
        <mxCell id="pelanggan" value="Pelanggan" style="rounded=1;whiteSpace=wrap;html=1;fillColor=#f8cecc;strokeColor=#b85450;fontSize=14;fontStyle=1;" vertex="1" parent="1">
          <mxGeometry x="550" y="120" width="120" height="60" as="geometry" />
        </mxCell>
        
        <!-- Frontend Layer -->
        <mxCell id="frontend_layer" value="FRONTEND LAYER (React.js + Tailwind CSS)" style="rounded=1;whiteSpace=wrap;html=1;fillColor=#dae8fc;strokeColor=#6c8ebf;fontSize=16;fontStyle=1;" vertex="1" parent="1">
          <mxGeometry x="50" y="240" width="1300" height="100" as="geometry" />
        </mxCell>
        
        <!-- Frontend Components -->
        <mxCell id="login_page" value="Login Page" style="rounded=1;whiteSpace=wrap;html=1;fillColor=#dae8fc;strokeColor=#6c8ebf;fontSize=12;" vertex="1" parent="1">
          <mxGeometry x="100" y="260" width="120" height="60" as="geometry" />
        </mxCell>
        
        <mxCell id="dashboard" value="Dashboard" style="rounded=1;whiteSpace=wrap;html=1;fillColor=#dae8fc;strokeColor=#6c8ebf;fontSize=12;" vertex="1" parent="1">
          <mxGeometry x="250" y="260" width="120" height="60" as="geometry" />
        </mxCell>
        
        <mxCell id="pos_system" value="POS System" style="rounded=1;whiteSpace=wrap;html=1;fillColor=#dae8fc;strokeColor=#6c8ebf;fontSize=12;" vertex="1" parent="1">
          <mxGeometry x="400" y="260" width="120" height="60" as="geometry" />
        </mxCell>
        
        <mxCell id="catalog" value="Product Catalog" style="rounded=1;whiteSpace=wrap;html=1;fillColor=#dae8fc;strokeColor=#6c8ebf;fontSize=12;" vertex="1" parent="1">
          <mxGeometry x="550" y="260" width="120" height="60" as="geometry" />
        </mxCell>
        
        <mxCell id="shopping_cart" value="Shopping Cart" style="rounded=1;whiteSpace=wrap;html=1;fillColor=#dae8fc;strokeColor=#6c8ebf;fontSize=12;" vertex="1" parent="1">
          <mxGeometry x="700" y="260" width="120" height="60" as="geometry" />
        </mxCell>
        
        <mxCell id="payment_page" value="Payment Page" style="rounded=1;whiteSpace=wrap;html=1;fillColor=#dae8fc;strokeColor=#6c8ebf;fontSize=12;" vertex="1" parent="1">
          <mxGeometry x="850" y="260" width="120" height="60" as="geometry" />
        </mxCell>
        
        <mxCell id="admin_panel" value="Admin Panel" style="rounded=1;whiteSpace=wrap;html=1;fillColor=#dae8fc;strokeColor=#6c8ebf;fontSize=12;" vertex="1" parent="1">
          <mxGeometry x="1000" y="260" width="120" height="60" as="geometry" />
        </mxCell>
        
        <mxCell id="kpi_dashboard" value="KPI Dashboard" style="rounded=1;whiteSpace=wrap;html=1;fillColor=#dae8fc;strokeColor=#6c8ebf;fontSize=12;" vertex="1" parent="1">
          <mxGeometry x="1150" y="260" width="120" height="60" as="geometry" />
        </mxCell>
        
        <!-- Internet Layer -->
        <mxCell id="internet_layer" value="INTERNET / NETWORK LAYER" style="rounded=1;whiteSpace=wrap;html=1;fillColor=#fff2cc;strokeColor=#d6b656;fontSize=16;fontStyle=1;" vertex="1" parent="1">
          <mxGeometry x="50" y="380" width="1300" height="80" as="geometry" />
        </mxCell>
        
        <mxCell id="internet" value="HTTP/HTTPS Protocol" style="rounded=1;whiteSpace=wrap;html=1;fillColor=#fff2cc;strokeColor=#d6b656;fontSize=14;" vertex="1" parent="1">
          <mxGeometry x="500" y="400" width="400" height="40" as="geometry" />
        </mxCell>
        
        <!-- API Layer -->
        <mxCell id="api_layer" value="API LAYER (RESTful API)" style="rounded=1;whiteSpace=wrap;html=1;fillColor=#f8cecc;strokeColor=#b85450;fontSize=16;fontStyle=1;" vertex="1" parent="1">
          <mxGeometry x="50" y="500" width="1300" height="100" as="geometry" />
        </mxCell>
        
        <!-- API Endpoints -->
        <mxCell id="auth_api" value="Authentication API" style="rounded=1;whiteSpace=wrap;html=1;fillColor=#f8cecc;strokeColor=#b85450;fontSize=12;" vertex="1" parent="1">
          <mxGeometry x="100" y="520" width="120" height="60" as="geometry" />
        </mxCell>
        
        <mxCell id="product_api" value="Product API" style="rounded=1;whiteSpace=wrap;html=1;fillColor=#f8cecc;strokeColor=#b85450;fontSize=12;" vertex="1" parent="1">
          <mxGeometry x="250" y="520" width="120" height="60" as="geometry" />
        </mxCell>
        
        <mxCell id="transaction_api" value="Transaction API" style="rounded=1;whiteSpace=wrap;html=1;fillColor=#f8cecc;strokeColor=#b85450;fontSize=12;" vertex="1" parent="1">
          <mxGeometry x="400" y="520" width="120" height="60" as="geometry" />
        </mxCell>
        
        <mxCell id="payment_api" value="Payment API" style="rounded=1;whiteSpace=wrap;html=1;fillColor=#f8cecc;strokeColor=#b85450;fontSize=12;" vertex="1" parent="1">
          <mxGeometry x="550" y="520" width="120" height="60" as="geometry" />
        </mxCell>
        
        <mxCell id="report_api" value="Report API" style="rounded=1;whiteSpace=wrap;html=1;fillColor=#f8cecc;strokeColor=#b85450;fontSize=12;" vertex="1" parent="1">
          <mxGeometry x="700" y="520" width="120" height="60" as="geometry" />
        </mxCell>
        
        <mxCell id="user_api" value="User API" style="rounded=1;whiteSpace=wrap;html=1;fillColor=#f8cecc;strokeColor=#b85450;fontSize=12;" vertex="1" parent="1">
          <mxGeometry x="850" y="520" width="120" height="60" as="geometry" />
        </mxCell>
        
        <mxCell id="barcode_api" value="Barcode API" style="rounded=1;whiteSpace=wrap;html=1;fillColor=#f8cecc;strokeColor=#b85450;fontSize=12;" vertex="1" parent="1">
          <mxGeometry x="1000" y="520" width="120" height="60" as="geometry" />
        </mxCell>
        
        <mxCell id="emailjs_api" value="EmailJS API" style="rounded=1;whiteSpace=wrap;html=1;fillColor=#f8cecc;strokeColor=#b85450;fontSize=12;" vertex="1" parent="1">
          <mxGeometry x="1150" y="520" width="120" height="60" as="geometry" />
        </mxCell>
        
        <!-- Backend Layer -->
        <mxCell id="backend_layer" value="BACKEND LAYER (Node.js + Express.js)" style="rounded=1;whiteSpace=wrap;html=1;fillColor=#d5e8d4;strokeColor=#82b366;fontSize=16;fontStyle=1;" vertex="1" parent="1">
          <mxGeometry x="50" y="640" width="1300" height="100" as="geometry" />
        </mxCell>
        
        <!-- Backend Components -->
        <mxCell id="auth_controller" value="Auth Controller" style="rounded=1;whiteSpace=wrap;html=1;fillColor=#d5e8d4;strokeColor=#82b366;fontSize=12;" vertex="1" parent="1">
          <mxGeometry x="100" y="660" width="120" height="60" as="geometry" />
        </mxCell>
        
        <mxCell id="product_controller" value="Product Controller" style="rounded=1;whiteSpace=wrap;html=1;fillColor=#d5e8d4;strokeColor=#82b366;fontSize=12;" vertex="1" parent="1">
          <mxGeometry x="250" y="660" width="120" height="60" as="geometry" />
        </mxCell>
        
        <mxCell id="transaction_controller" value="Transaction Controller" style="rounded=1;whiteSpace=wrap;html=1;fillColor=#d5e8d4;strokeColor=#82b366;fontSize=12;" vertex="1" parent="1">
          <mxGeometry x="400" y="660" width="120" height="60" as="geometry" />
        </mxCell>
        
        <mxCell id="payment_controller" value="Payment Controller" style="rounded=1;whiteSpace=wrap;html=1;fillColor=#d5e8d4;strokeColor=#82b366;fontSize=12;" vertex="1" parent="1">
          <mxGeometry x="550" y="660" width="120" height="60" as="geometry" />
        </mxCell>
        
        <mxCell id="report_controller" value="Report Controller" style="rounded=1;whiteSpace=wrap;html=1;fillColor=#d5e8d4;strokeColor=#82b366;fontSize=12;" vertex="1" parent="1">
          <mxGeometry x="700" y="660" width="120" height="60" as="geometry" />
        </mxCell>
        
        <mxCell id="user_controller" value="User Controller" style="rounded=1;whiteSpace=wrap;html=1;fillColor=#d5e8d4;strokeColor=#82b366;fontSize=12;" vertex="1" parent="1">
          <mxGeometry x="850" y="660" width="120" height="60" as="geometry" />
        </mxCell>
        
        <mxCell id="middleware" value="Middleware" style="rounded=1;whiteSpace=wrap;html=1;fillColor=#d5e8d4;strokeColor=#82b366;fontSize=12;" vertex="1" parent="1">
          <mxGeometry x="1000" y="660" width="120" height="60" as="geometry" />
        </mxCell>
        
        <mxCell id="validation" value="Validation" style="rounded=1;whiteSpace=wrap;html=1;fillColor=#d5e8d4;strokeColor=#82b366;fontSize=12;" vertex="1" parent="1">
          <mxGeometry x="1150" y="660" width="120" height="60" as="geometry" />
        </mxCell>
        
        <!-- External Services Layer -->
        <mxCell id="external_layer" value="EXTERNAL SERVICES LAYER" style="rounded=1;whiteSpace=wrap;html=1;fillColor=#e1d5e7;strokeColor=#9673a6;fontSize=16;fontStyle=1;" vertex="1" parent="1">
          <mxGeometry x="50" y="780" width="1300" height="80" as="geometry" />
        </mxCell>
        
        <!-- External Services -->
        <mxCell id="midtrans" value="Midtrans Payment Gateway" style="rounded=1;whiteSpace=wrap;html=1;fillColor=#e1d5e7;strokeColor=#9673a6;fontSize=12;" vertex="1" parent="1">
          <mxGeometry x="100" y="800" width="150" height="40" as="geometry" />
        </mxCell>
        
        <mxCell id="emailjs" value="EmailJS Service" style="rounded=1;whiteSpace=wrap;html=1;fillColor=#e1d5e7;strokeColor=#9673a6;fontSize=12;" vertex="1" parent="1">
          <mxGeometry x="300" y="800" width="150" height="40" as="geometry" />
        </mxCell>
        
        <mxCell id="barcode_scanner" value="Barcode Scanner Library" style="rounded=1;whiteSpace=wrap;html=1;fillColor=#e1d5e7;strokeColor=#9673a6;fontSize=12;" vertex="1" parent="1">
          <mxGeometry x="500" y="800" width="150" height="40" as="geometry" />
        </mxCell>
        
        <mxCell id="jwt" value="JWT Authentication" style="rounded=1;whiteSpace=wrap;html=1;fillColor=#e1d5e7;strokeColor=#9673a6;fontSize=12;" vertex="1" parent="1">
          <mxGeometry x="700" y="800" width="150" height="40" as="geometry" />
        </mxCell>
        
        <mxCell id="bcrypt" value="Bcrypt Hashing" style="rounded=1;whiteSpace=wrap;html=1;fillColor=#e1d5e7;strokeColor=#9673a6;fontSize=12;" vertex="1" parent="1">
          <mxGeometry x="900" y="800" width="150" height="40" as="geometry" />
        </mxCell>
        
        <!-- Database Layer -->
        <mxCell id="database_layer" value="DATABASE LAYER (MySQL)" style="rounded=1;whiteSpace=wrap;html=1;fillColor=#fff2cc;strokeColor=#d6b656;fontSize=16;fontStyle=1;" vertex="1" parent="1">
          <mxGeometry x="50" y="900" width="1300" height="80" as="geometry" />
        </mxCell>
        
        <!-- Database Tables -->
        <mxCell id="users_table" value="Users Table" style="rounded=1;whiteSpace=wrap;html=1;fillColor=#fff2cc;strokeColor=#d6b656;fontSize=12;" vertex="1" parent="1">
          <mxGeometry x="100" y="920" width="120" height="40" as="geometry" />
        </mxCell>
        
        <mxCell id="products_table" value="Products Table" style="rounded=1;whiteSpace=wrap;html=1;fillColor=#fff2cc;strokeColor=#d6b656;fontSize=12;" vertex="1" parent="1">
          <mxGeometry x="250" y="920" width="120" height="40" as="geometry" />
        </mxCell>
        
        <mxCell id="variants_table" value="Product Variants Table" style="rounded=1;whiteSpace=wrap;html=1;fillColor=#fff2cc;strokeColor=#d6b656;fontSize=12;" vertex="1" parent="1">
          <mxGeometry x="400" y="920" width="120" height="40" as="geometry" />
        </mxCell>
        
        <mxCell id="transactions_table" value="Transactions Table" style="rounded=1;whiteSpace=wrap;html=1;fillColor=#fff2cc;strokeColor=#d6b656;fontSize=12;" vertex="1" parent="1">
          <mxGeometry x="550" y="920" width="120" height="40" as="geometry" />
        </mxCell>
        
        <mxCell id="categories_table" value="Categories Table" style="rounded=1;whiteSpace=wrap;html=1;fillColor=#fff2cc;strokeColor=#d6b656;fontSize=12;" vertex="1" parent="1">
          <mxGeometry x="700" y="920" width="120" height="40" as="geometry" />
        </mxCell>
        
        <mxCell id="carts_table" value="Carts Table" style="rounded=1;whiteSpace=wrap;html=1;fillColor=#fff2cc;strokeColor=#d6b656;fontSize=12;" vertex="1" parent="1">
          <mxGeometry x="850" y="920" width="120" height="40" as="geometry" />
        </mxCell>
        
        <mxCell id="shipping_table" value="Shipping Addresses Table" style="rounded=1;whiteSpace=wrap;html=1;fillColor=#fff2cc;strokeColor=#d6b656;fontSize=12;" vertex="1" parent="1">
          <mxGeometry x="1000" y="920" width="120" height="40" as="geometry" />
        </mxCell>
        
        <!-- Security Layer -->
        <mxCell id="security_layer" value="SECURITY LAYER" style="rounded=1;whiteSpace=wrap;html=1;fillColor=#f8cecc;strokeColor=#b85450;fontSize=16;fontStyle=1;" vertex="1" parent="1">
          <mxGeometry x="50" y="1020" width="1300" height="60" as="geometry" />
        </mxCell>
        
        <!-- Security Components -->
        <mxCell id="jwt_auth" value="JWT Token Authentication" style="rounded=1;whiteSpace=wrap;html=1;fillColor=#f8cecc;strokeColor=#b85450;fontSize=12;" vertex="1" parent="1">
          <mxGeometry x="100" y="1040" width="150" height="40" as="geometry" />
        </mxCell>
        
        <mxCell id="password_hash" value="Password Hashing (Bcrypt)" style="rounded=1;whiteSpace=wrap;html=1;fillColor=#f8cecc;strokeColor=#b85450;fontSize=12;" vertex="1" parent="1">
          <mxGeometry x="300" y="1040" width="150" height="40" as="geometry" />
        </mxCell>
        
        <mxCell id="role_based" value="Role-Based Access Control" style="rounded=1;whiteSpace=wrap;html=1;fillColor=#f8cecc;strokeColor=#b85450;fontSize=12;" vertex="1" parent="1">
          <mxGeometry x="500" y="1040" width="150" height="40" as="geometry" />
        </mxCell>
        
        <mxCell id="input_validation" value="Input Validation & Sanitization" style="rounded=1;whiteSpace=wrap;html=1;fillColor=#f8cecc;strokeColor=#b85450;fontSize=12;" vertex="1" parent="1">
          <mxGeometry x="700" y="1040" width="150" height="40" as="geometry" />
        </mxCell>
        
        <mxCell id="https" value="HTTPS Encryption" style="rounded=1;whiteSpace=wrap;html=1;fillColor=#f8cecc;strokeColor=#b85450;fontSize=12;" vertex="1" parent="1">
          <mxGeometry x="900" y="1040" width="150" height="40" as="geometry" />
        </mxCell>
        
        <!-- Connections -->
        <!-- User to Frontend -->
        <mxCell id="edge1" edge="1" parent="1" source="pemilik" target="kpi_dashboard">
          <mxGeometry relative="1" as="geometry" />
        </mxCell>
        
        <mxCell id="edge2" edge="1" parent="1" source="admin" target="admin_panel">
          <mxGeometry relative="1" as="geometry" />
        </mxCell>
        
        <mxCell id="edge3" edge="1" parent="1" source="kasir" target="pos_system">
          <mxGeometry relative="1" as="geometry" />
        </mxCell>
        
        <mxCell id="edge4" edge="1" parent="1" source="pelanggan" target="catalog">
          <mxGeometry relative="1" as="geometry" />
        </mxCell>
        
        <!-- Frontend to Internet -->
        <mxCell id="edge5" edge="1" parent="1" source="kpi_dashboard" target="internet">
          <mxGeometry relative="1" as="geometry" />
        </mxCell>
        
        <mxCell id="edge6" edge="1" parent="1" source="admin_panel" target="internet">
          <mxGeometry relative="1" as="geometry" />
        </mxCell>
        
        <mxCell id="edge7" edge="1" parent="1" source="pos_system" target="internet">
          <mxGeometry relative="1" as="geometry" />
        </mxCell>
        
        <mxCell id="edge8" edge="1" parent="1" source="catalog" target="internet">
          <mxGeometry relative="1" as="geometry" />
        </mxCell>
        
        <!-- Internet to API -->
        <mxCell id="edge9" edge="1" parent="1" source="internet" target="auth_api">
          <mxGeometry relative="1" as="geometry" />
        </mxCell>
        
        <mxCell id="edge10" edge="1" parent="1" source="internet" target="product_api">
          <mxGeometry relative="1" as="geometry" />
        </mxCell>
        
        <mxCell id="edge11" edge="1" parent="1" source="internet" target="transaction_api">
          <mxGeometry relative="1" as="geometry" />
        </mxCell>
        
        <mxCell id="edge12" edge="1" parent="1" source="internet" target="payment_api">
          <mxGeometry relative="1" as="geometry" />
        </mxCell>
        
        <!-- API to Backend -->
        <mxCell id="edge13" edge="1" parent="1" source="auth_api" target="auth_controller">
          <mxGeometry relative="1" as="geometry" />
        </mxCell>
        
        <mxCell id="edge14" edge="1" parent="1" source="product_api" target="product_controller">
          <mxGeometry relative="1" as="geometry" />
        </mxCell>
        
        <mxCell id="edge15" edge="1" parent="1" source="transaction_api" target="transaction_controller">
          <mxGeometry relative="1" as="geometry" />
        </mxCell>
        
        <mxCell id="edge16" edge="1" parent="1" source="payment_api" target="payment_controller">
          <mxGeometry relative="1" as="geometry" />
        </mxCell>
        
        <!-- Backend to External Services -->
        <mxCell id="edge17" edge="1" parent="1" source="payment_controller" target="midtrans">
          <mxGeometry relative="1" as="geometry" />
        </mxCell>
        
        <mxCell id="edge18" edge="1" parent="1" source="auth_controller" target="emailjs">
          <mxGeometry relative="1" as="geometry" />
        </mxCell>
        
        <mxCell id="edge19" edge="1" parent="1" source="product_controller" target="barcode_scanner">
          <mxGeometry relative="1" as="geometry" />
        </mxCell>
        
        <!-- Backend to Database -->
        <mxCell id="edge20" edge="1" parent="1" source="auth_controller" target="users_table">
          <mxGeometry relative="1" as="geometry" />
        </mxCell>
        
        <mxCell id="edge21" edge="1" parent="1" source="product_controller" target="products_table">
          <mxGeometry relative="1" as="geometry" />
        </mxCell>
        
        <mxCell id="edge22" edge="1" parent="1" source="product_controller" target="variants_table">
          <mxGeometry relative="1" as="geometry" />
        </mxCell>
        
        <mxCell id="edge23" edge="1" parent="1" source="transaction_controller" target="transactions_table">
          <mxGeometry relative="1" as="geometry" />
        </mxCell>
        
        <!-- Security Connections -->
        <mxCell id="edge24" edge="1" parent="1" source="jwt_auth" target="middleware">
          <mxGeometry relative="1" as="geometry" />
        </mxCell>
        
        <mxCell id="edge25" edge="1" parent="1" source="password_hash" target="validation">
          <mxGeometry relative="1" as="geometry" />
        </mxCell>
        
        <!-- Legend -->
        <mxCell id="legend" value="KETERANGAN ARSITEKTUR:" style="text;html=1;strokeColor=none;fillColor=none;align=left;verticalAlign=middle;whiteSpace=wrap;rounded=0;fontSize=14;fontStyle=1;" vertex="1" parent="1">
          <mxGeometry x="50" y="1120" width="300" height="30" as="geometry" />
        </mxCell>
        
        <mxCell id="legend_user" value="User Layer: Interface pengguna dengan sistem" style="text;html=1;strokeColor=none;fillColor=#e1d5e7;align=left;verticalAlign=middle;whiteSpace=wrap;rounded=0;fontSize=12;" vertex="1" parent="1">
          <mxGeometry x="50" y="1150" width="350" height="20" as="geometry" />
        </mxCell>
        
        <mxCell id="legend_frontend" value="Frontend Layer: Tampilan web menggunakan React.js" style="text;html=1;strokeColor=none;fillColor=#dae8fc;align=left;verticalAlign=middle;whiteSpace=wrap;rounded=0;fontSize=12;" vertex="1" parent="1">
          <mxGeometry x="50" y="1170" width="350" height="20" as="geometry" />
        </mxCell>
        
        <mxCell id="legend_api" value="API Layer: Jembatan komunikasi frontend-backend" style="text;html=1;strokeColor=none;fillColor=#f8cecc;align=left;verticalAlign=middle;whiteSpace=wrap;rounded=0;fontSize=12;" vertex="1" parent="1">
          <mxGeometry x="50" y="1190" width="350" height="20" as="geometry" />
        </mxCell>
        
        <mxCell id="legend_backend" value="Backend Layer: Logika bisnis menggunakan Node.js" style="text;html=1;strokeColor=none;fillColor=#d5e8d4;align=left;verticalAlign=middle;whiteSpace=wrap;rounded=0;fontSize=12;" vertex="1" parent="1">
          <mxGeometry x="50" y="1210" width="350" height="20" as="geometry" />
        </mxCell>
        
        <mxCell id="legend_external" value="External Services: Integrasi dengan layanan pihak ketiga" style="text;html=1;strokeColor=none;fillColor=#e1d5e7;align=left;verticalAlign=middle;whiteSpace=wrap;rounded=0;fontSize=12;" vertex="1" parent="1">
          <mxGeometry x="50" y="1230" width="350" height="20" as="geometry" />
        </mxCell>
        
        <mxCell id="legend_database" value="Database Layer: Penyimpanan data menggunakan MySQL" style="text;html=1;strokeColor=none;fillColor=#fff2cc;align=left;verticalAlign=middle;whiteSpace=wrap;rounded=0;fontSize=12;" vertex="1" parent="1">
          <mxGeometry x="50" y="1250" width="350" height="20" as="geometry" />
        </mxCell>
        
        <mxCell id="legend_security" value="Security Layer: Keamanan dan autentikasi sistem" style="text;html=1;strokeColor=none;fillColor=#f8cecc;align=left;verticalAlign=middle;whiteSpace=wrap;rounded=0;fontSize=12;" vertex="1" parent="1">
          <mxGeometry x="50" y="1270" width="350" height="20" as="geometry" />
        </mxCell>
        
      </root>
    </mxGraphModel>
  </diagram>
</mxfile>
